<svg width="64" height="64" viewBox="0 0 64 64" fill="none" xmlns="http://www.w3.org/2000/svg">
<rect x="1.33866" y="1.33866" width="61.3227" height="61.3227" fill="#2B363F" stroke="#EDB351" stroke-width="2.67733"/>
<path d="M15.1216 55.6314H10.1736L9.38046 57.8734H6L10.7969 45.1808H14.5361L19.333 57.8734H15.9148L15.1216 55.6314ZM14.2906 53.2448L12.6476 48.5981L11.0235 53.2448H14.2906Z" fill="#EDB351"/>
<path d="M30.5566 45.1808V47.6579H27.0439V57.8734H23.8146V47.6579H20.3019V45.1808H30.5566Z" fill="#EDB351"/>
<path d="M39.1649 57.8734L36.4076 53.0821H35.6333V57.8734H32.404V45.1808H37.824C38.869 45.1808 39.7566 45.3556 40.4869 45.7051C41.2297 46.0547 41.7837 46.5369 42.1488 47.1516C42.5139 47.7543 42.6964 48.4293 42.6964 49.1766C42.6964 50.0204 42.4446 50.7738 41.941 51.4367C41.45 52.0997 40.7198 52.5698 39.7503 52.847L42.8098 57.8734H39.1649ZM35.6333 50.8943H37.6352C38.2269 50.8943 38.6676 50.7557 38.9572 50.4784C39.2593 50.2012 39.4104 49.8095 39.4104 49.3032C39.4104 48.821 39.2593 48.4414 38.9572 48.1641C38.6676 47.8869 38.2269 47.7483 37.6352 47.7483H35.6333V50.8943Z" fill="#EDB351"/>
<path d="M51.2202 58C49.9738 58 48.8281 57.7228 47.7831 57.1683C46.7507 56.6138 45.926 55.8424 45.3091 54.854C44.7048 53.8535 44.4026 52.7325 44.4026 51.491C44.4026 50.2494 44.7048 49.1344 45.3091 48.146C45.926 47.1576 46.7507 46.3862 47.7831 45.8317C48.8281 45.2772 49.9738 45 51.2202 45C52.4666 45 53.606 45.2772 54.6384 45.8317C55.6834 46.3862 56.5018 47.1576 57.0935 48.146C57.6978 49.1344 58 50.2494 58 51.491C58 52.7325 57.6978 53.8535 57.0935 54.854C56.4892 55.8424 55.6708 56.6138 54.6384 57.1683C53.606 57.7228 52.4666 58 51.2202 58ZM51.2202 55.1794C52.2778 55.1794 53.1213 54.8419 53.7508 54.1669C54.3929 53.4919 54.714 52.5999 54.714 51.491C54.714 50.37 54.3929 49.478 53.7508 48.815C53.1213 48.14 52.2778 47.8025 51.2202 47.8025C50.15 47.8025 49.2939 48.134 48.6518 48.7969C48.0223 49.4599 47.7075 50.3579 47.7075 51.491C47.7075 52.612 48.0223 53.51 48.6518 54.185C49.2939 54.8479 50.15 55.1794 51.2202 55.1794Z" fill="#EDB351"/>
</svg>
